<?xml version="1.0" standalone="no"?><!DOCTYPE svg PUBLIC "-//W3C//DTD SVG 1.1//EN" "http://www.w3.org/Graphics/SVG/1.1/DTD/svg11.dtd"><svg t="1700738801113" class="icon" viewBox="0 0 1024 1024" version="1.1" xmlns="http://www.w3.org/2000/svg" p-id="1405" xmlns:xlink="http://www.w3.org/1999/xlink" width="48" height="48"><path d="M962.336 725.952c-28.384-85.76-98.304-148.672-183.744-171.776a128 128 0 1 0-143.488-0.288 270.784 270.784 0 0 0-76.576 34.976 307.008 307.008 0 0 0-124.576-66.432c48.192-27.552 81.056-78.88 81.056-138.368 0-88.384-71.616-160-160-160s-160 71.616-160 160c0 59.488 32.864 110.816 81.056 138.368a307.648 307.648 0 0 0-214.496 203.808 32.032 32.032 0 0 0 20.64 40.288 32.032 32.032 0 0 0 40.288-20.704A243.84 243.84 0 0 1 355.008 576a243.744 243.744 0 0 1 232.512 169.824 32.032 32.032 0 0 0 60.96-19.616 311.52 311.52 0 0 0-46.048-89.632A205.76 205.76 0 0 1 707.04 608c89.056 0 167.264 55.456 194.56 138.048a31.968 31.968 0 1 0 60.736-20.096zM355.008 288c52.928 0 96 43.072 96 96s-43.072 96-96 96-96-43.072-96-96 43.072-96 96-96z m352.032 96c35.328 0 64 28.704 64 64s-28.672 64-64 64-64-28.704-64-64 28.672-64 64-64z" fill="#cdd6f4" p-id="1406"></path></svg>