<?xml version="1.0" standalone="no"?><!DOCTYPE svg PUBLIC "-//W3C//DTD SVG 1.1//EN" "http://www.w3.org/Graphics/SVG/1.1/DTD/svg11.dtd"><svg t="1700570422170" class="icon" viewBox="0 0 1024 1024" version="1.1" xmlns="http://www.w3.org/2000/svg" p-id="3012" xmlns:xlink="http://www.w3.org/1999/xlink" width="48" height="48"><path d="M170.666667 341.333333C99.946667 341.333333 42.666667 400.394667 42.666667 471.114667V554.666667c0 70.72 57.28 128 128 128h85.333333l213.333333 213.333333V128L256 341.333333h-85.333333z m145.664 60.341334l67.658666-69.333334L384 330.666667v359.338666l-67.658667-67.68L291.328 597.333333H170.666667c-23.530667 0-42.666667-19.136-42.666667-42.666666v-83.552C128 447.018667 147.541333 426.666667 170.666667 426.666667h120.661333l25.002667-24.992z m609.834666 208.16a42.666667 42.666667 0 0 1-59.274666 61.376c-0.362667-0.330667-0.704-0.682667-1.056-1.045334L768 572.341333l-97.834667 97.824C661.834667 678.496 650.912 682.666667 640 682.666667s-21.834667-4.170667-30.165333-12.501334a42.666667 42.666667 0 0 1 0-60.330666L707.658667 512l-97.824-97.834667a42.666667 42.666667 0 0 1 59.274666-61.376c0.362667 0.341333 0.704 0.693333 1.056 1.045334L768 451.658667l97.834667-97.824a42.666667 42.666667 0 1 1 60.330666 60.341333L828.341333 512l97.824 97.834667z" p-id="3013" fill="#cdd6f4"></path></svg>