<?xml version="1.0" standalone="no"?><!DOCTYPE svg PUBLIC "-//W3C//DTD SVG 1.1//EN" "http://www.w3.org/Graphics/SVG/1.1/DTD/svg11.dtd"><svg t="1700570452532" class="icon" viewBox="0 0 1024 1024" version="1.1" xmlns="http://www.w3.org/2000/svg" p-id="3360" xmlns:xlink="http://www.w3.org/1999/xlink" width="48" height="48"><path d="M341.333333 128c-70.688 0-128 57.312-128 128v512c0 70.688 57.312 128 128 128s128-57.312 128-128V256c0-70.688-57.312-128-128-128z m42.666667 640a42.666667 42.666667 0 0 1-85.333333 0V256a42.666667 42.666667 0 0 1 85.333333 0v512z m298.666667-640c-70.688 0-128 57.312-128 128v512c0 70.688 57.312 128 128 128s128-57.312 128-128V256c0-70.688-57.312-128-128-128z m42.666666 640a42.666667 42.666667 0 0 1-85.333333 0V256a42.666667 42.666667 0 0 1 85.333333 0v512z" p-id="3361" fill="#cdd6f4"></path></svg>