<?xml version="1.0" standalone="no"?><!DOCTYPE svg PUBLIC "-//W3C//DTD SVG 1.1//EN" "http://www.w3.org/Graphics/SVG/1.1/DTD/svg11.dtd"><svg t="1700568542176" class="icon" viewBox="0 0 1024 1024" version="1.1" xmlns="http://www.w3.org/2000/svg" p-id="2664" xmlns:xlink="http://www.w3.org/1999/xlink" width="48" height="48"><path d="M981.333333 170.666667v256a42.666667 42.666667 0 0 1-42.666666 42.666666H682.666667a42.666667 42.666667 0 0 1 0-85.333333h143.872c-57.856-56.405333-103.456-100.981333-115.84-113.354667A340.202667 340.202667 0 0 0 469.333333 170.666667a340.202667 340.202667 0 0 0-241.365333 99.978666A340.192 340.192 0 0 0 128 512a340.170667 340.170667 0 0 0 99.968 241.354667A340.16 340.16 0 0 0 469.333333 853.333333a340.16 340.16 0 0 0 241.365334-99.978666 344.64 344.64 0 0 0 48.117333-60.309334 339.221333 339.221333 0 0 0 32.416-67.232 42.656 42.656 0 0 1 54.442667-26.037333 42.656 42.656 0 0 1 26.037333 54.432 424.746667 424.746667 0 0 1-100.672 159.509333 423.861333 423.861333 0 0 1-141.162667 93.706667 424.576 424.576 0 0 1-79.072 23.434667 429.28 429.28 0 0 1-162.922666 0 425.621333 425.621333 0 0 1-79.072-23.434667 423.893333 423.893333 0 0 1-141.162667-93.706667 423.808 423.808 0 0 1-93.717333-141.173333A426.965333 426.965333 0 0 1 42.666667 512a426.848 426.848 0 0 1 31.242666-160.533333 423.925333 423.925333 0 0 1 93.717334-141.162667 424.042667 424.042667 0 0 1 141.162666-93.717333 424.576 424.576 0 0 1 79.072-23.434667 428.693333 428.693333 0 0 1 162.933334-0.010667 425.952 425.952 0 0 1 79.072 23.434667 423.893333 423.893333 0 0 1 141.162666 93.717333c12.736 12.746667 62.645333 61.482667 124.970667 122.24V170.666667a42.666667 42.666667 0 0 1 85.333333 0z" p-id="2665" fill="#cdd6f4"></path></svg>